<svg width="118" height="118" viewBox="0 0 118 118" fill="none" xmlns="http://www.w3.org/2000/svg">
<g filter="url(#filter0_d)">
<path d="M95.2816 2.72198C95.2816 2.56186 95.1215 2.40175 94.9614 2.40175L92.5597 2.24163L91.599 0.160116C91.599 0 91.4388 0 91.2787 0C91.1186 0 90.9585 0.160116 90.9585 0.160116L89.8377 2.24163L87.596 2.56186C87.4359 2.56186 87.2758 2.72198 87.2758 2.8821C87.2758 3.04221 87.2758 3.20233 87.4359 3.36245L88.877 4.80349L88.3966 7.04512C88.3966 7.20524 88.3966 7.36536 88.5568 7.36536C88.7169 7.36536 88.877 7.52547 89.0371 7.36536L91.1186 6.24454L93.2001 7.36536H93.3602C93.5204 7.36536 93.5204 7.36536 93.5204 7.36536C93.6805 7.20524 93.6805 7.20524 93.6805 7.04512L93.3602 4.80349L95.1215 3.20233C95.2816 3.04221 95.2816 2.8821 95.2816 2.72198Z" fill="#F2F2F2"/>
<path d="M17.6252 19.0539L15.7038 17.9331L15.3835 15.6914C15.3835 15.5313 15.2234 15.3712 15.0633 15.3712C14.9032 15.3712 14.7431 15.3712 14.5829 15.5313L12.9818 17.2926L10.7401 16.9724C10.58 16.9724 10.4199 16.9724 10.4199 17.1325C10.2598 17.2926 10.2598 17.4527 10.4199 17.6128L11.3806 19.3741L10.2598 21.4556C10.2598 21.6158 10.2598 21.7759 10.2598 21.936C10.2598 22.0961 10.58 22.0961 10.58 22.0961L12.8217 21.6158L14.4228 23.2169C14.4228 23.2169 14.5829 23.377 14.7431 23.377H14.9032C15.0633 23.377 15.2234 23.2169 15.2234 23.0568L15.5436 20.8152L17.6252 19.6944C17.7853 19.6944 17.7853 19.5342 17.7853 19.3741C17.7853 19.214 17.6252 19.0539 17.6252 19.0539Z" fill="#F2F2F2"/>
<path d="M110.973 88.064L109.051 86.7831L108.891 84.3813C108.891 84.2212 108.731 84.0611 108.731 84.0611C108.571 84.0611 108.411 84.0611 108.251 84.0611L106.49 85.5021L104.248 84.8617C104.088 84.8617 103.928 84.8617 103.768 85.0218C103.607 85.1819 103.607 85.342 103.768 85.5021L104.568 87.5837L103.287 89.5051C103.127 89.6652 103.127 89.8253 103.287 89.9854C103.287 90.1455 103.447 90.1455 103.607 90.1455L106.009 89.9854L107.45 91.7467C107.45 91.9068 107.61 91.9068 107.77 91.9068C107.77 91.9068 107.77 91.9068 107.931 91.9068C108.091 91.9068 108.251 91.7467 108.251 91.5866L108.891 89.3449L111.133 88.5444C111.293 88.5444 111.453 88.3842 111.453 88.2241C111.133 88.2241 111.133 88.064 110.973 88.064Z" fill="#F2F2F2"/>
<path d="M14.5828 70.7715C14.5828 70.6114 14.5828 70.4513 14.4226 70.4513L12.5012 69.1703L12.3411 66.7686C12.3411 66.6085 12.181 66.4484 12.181 66.4484C12.0209 66.4484 11.8608 66.4484 11.7007 66.4484L9.93938 67.8894L7.69775 67.4091C7.53764 67.4091 7.37752 67.4091 7.2174 67.5692C7.05729 67.7293 7.05729 67.8894 7.2174 68.0495L8.01798 70.131L6.73737 72.0524C6.57725 72.2126 6.57725 72.3727 6.73737 72.5328C6.73737 72.6929 6.89748 72.6929 7.0576 72.6929L9.45935 72.5328L10.9004 74.2941C10.9004 74.4542 11.0605 74.4542 11.2206 74.4542C11.2206 74.4542 11.2206 74.4542 11.3807 74.4542C11.5409 74.4542 11.701 74.2941 11.701 74.134L12.3414 71.8923L14.5831 71.0917C14.5828 71.0917 14.5828 70.9316 14.5828 70.7715Z" fill="#F2F2F2"/>
<path d="M26.5918 104.076C26.2716 104.076 26.2716 103.916 26.1115 103.916L23.7097 103.435L22.749 101.354C22.749 101.194 22.5889 101.194 22.4288 101.194C22.2687 101.194 22.1086 101.354 22.1086 101.354L20.9877 103.435L18.7461 103.755C18.586 103.755 18.4259 103.916 18.4259 104.076C18.4259 104.236 18.4259 104.396 18.586 104.556L20.1872 106.157L19.7068 108.399C19.7068 108.559 19.7068 108.719 19.8669 108.719C20.027 108.879 20.1872 108.879 20.3473 108.719L22.4288 107.598L24.5103 108.719H24.6704C24.8305 108.719 24.8305 108.719 24.8305 108.719C24.9907 108.559 24.9907 108.559 24.9907 108.399L24.6704 106.157L26.4317 104.556C26.5918 104.396 26.5918 104.236 26.5918 104.076Z" fill="#F2F2F2"/>
<path d="M58.615 0C57.6543 0 57.0139 0.640466 57.0139 1.60116V46.5939C57.0139 47.5546 57.8144 48.1951 58.615 48.1951C59.5757 48.1951 60.2162 47.5546 60.2162 46.5939V1.60116C60.2162 0.640466 59.5757 0 58.615 0Z" fill="#F2F2F2"/>
<path d="M58.615 70.7715C57.6543 70.7715 57.0139 71.4119 57.0139 72.3726V108.399C57.0139 109.36 57.6543 110 58.615 110C59.5757 110 60.2162 109.36 60.2162 108.399V72.3726C60.2162 71.4119 59.5757 70.7715 58.615 70.7715Z" fill="#F2F2F2"/>
<path d="M54.7722 40.6696L48.0473 21.936C47.727 21.1354 46.7663 20.6551 45.9657 20.9753C45.1652 21.2955 44.8449 22.2562 45.1652 23.0568L51.8901 41.7904C52.0502 42.4309 52.6906 42.9113 53.3311 42.9113C53.4912 42.9113 53.6513 42.9113 53.8115 42.7511C54.612 42.4309 55.0924 41.4702 54.7722 40.6696Z" fill="#F2F2F2"/>
<path d="M45.8058 16.492L43.404 10.7278C43.0838 9.92723 42.1231 9.44688 41.3225 9.76712C40.522 10.0873 40.0416 11.048 40.3618 11.8486L42.7636 17.7729C43.0838 18.4134 43.5642 18.7336 44.2046 18.7336C44.3647 18.7336 44.5249 18.7336 44.8451 18.5735C45.6457 18.2533 46.126 17.2926 45.8058 16.492Z" fill="#F2F2F2"/>
<path d="M71.9047 89.6652L63.2585 65.1674C62.9382 64.3668 61.9775 63.8865 61.1769 64.2067C60.3764 64.5269 59.896 65.4876 60.2162 66.2882L69.0227 90.786C69.1828 91.4265 69.8232 91.9069 70.4637 91.9069C70.6238 91.9069 70.7839 91.9069 70.9441 91.7467C71.7446 91.4265 72.225 90.4658 71.9047 89.6652Z" fill="#F2F2F2"/>
<path d="M56.3733 51.3974L27.5524 16.3319C26.9119 15.6914 25.9512 15.5313 25.3108 16.1718C24.6703 16.8122 24.5102 17.7729 25.1506 18.4134L53.9716 53.3188C54.2918 53.639 54.7722 53.9592 55.2525 53.9592C55.5728 53.9592 55.893 53.7991 56.2132 53.639C56.8537 52.9985 57.0138 52.0378 56.3733 51.3974Z" fill="#F2F2F2"/>
<path d="M92.0791 96.3901L69.6628 68.8501C69.0223 68.2096 68.0616 68.0495 67.4212 68.6899C66.7807 69.3304 66.6206 70.2911 67.2611 70.9316L89.6774 98.3115C89.9976 98.6317 90.4779 98.9519 90.9583 98.9519C91.2785 98.9519 91.5988 98.7918 91.919 98.6317C92.5598 97.9912 92.7199 97.0306 92.0791 96.3901Z" fill="#F2F2F2"/>
<path d="M44.685 46.1135L22.5889 32.8239C21.7883 32.3435 20.8276 32.6638 20.3473 33.3042C19.8669 34.2649 20.027 35.2256 20.8276 35.706L42.9237 48.9956C43.2439 49.1557 43.404 49.1558 43.7243 49.1558C44.2046 49.1558 44.8451 48.8355 45.1653 48.3552C45.6456 47.5546 45.3254 46.5939 44.685 46.1135Z" fill="#F2F2F2"/>
<path d="M98.1637 78.7773L62.1375 57.3217C61.3369 56.8413 60.3762 57.1616 59.8959 57.802C59.4155 58.6026 59.7357 59.5633 60.3762 60.0437L96.2423 81.4993C96.5625 81.6594 96.7227 81.6594 97.0429 81.6594C97.5232 81.6594 98.1637 81.3391 98.4839 80.8588C99.1241 80.2183 98.9643 79.2576 98.1637 78.7773Z" fill="#F2F2F2"/>
<path d="M44.2045 52.0379L8.49855 44.9927C7.69797 44.8326 6.73727 45.313 6.57716 46.2737C6.41704 47.2344 6.89739 48.035 7.85809 48.1951L43.5641 55.2402C43.7242 55.2402 43.7242 55.2402 43.8843 55.2402C44.6849 55.2402 45.3253 54.7599 45.4855 53.9593C45.6456 53.1587 45.1652 52.198 44.2045 52.0379Z" fill="#F2F2F2"/>
<path d="M106.009 64.687L74.9466 58.6026C73.9859 58.4425 73.1853 58.9228 73.0252 59.8835C72.865 60.6841 73.3454 61.6448 74.3061 61.8049L105.369 67.8894C105.529 67.8894 105.529 67.8894 105.689 67.8894C106.489 67.8894 107.13 67.409 107.29 66.6084C107.451 65.8078 106.97 64.8472 106.009 64.687Z" fill="#F2F2F2"/>
<path d="M89.9978 50.2766L68.222 53.4789C67.4214 53.639 66.781 54.4396 66.9411 55.2402C67.1012 56.0408 67.7417 56.6813 68.5422 56.6813H68.7024L90.4782 53.4789C91.2788 53.1587 91.7591 52.3581 91.7591 51.5575C91.599 50.7569 90.7984 50.1165 89.9978 50.2766Z" fill="#F2F2F2"/>
<path d="M52.2103 57.4818C52.0502 56.6812 51.2496 56.0407 50.449 56.2008L24.8304 59.8835C24.0298 60.0436 23.3894 60.8442 23.5495 61.6448C23.7096 62.4454 24.3501 63.0859 25.1506 63.0859H25.3108L50.9294 59.2431C51.73 59.0829 52.3704 58.2824 52.2103 57.4818Z" fill="#F2F2F2"/>
<path d="M99.765 50.4367C99.6049 49.6361 98.8043 48.9956 98.0038 49.1557L96.0824 49.476C95.2818 49.6361 94.6413 50.4367 94.8014 51.2373C94.9615 52.0378 95.602 52.6783 96.4026 52.6783C96.4026 52.5182 96.4026 52.5182 96.5627 52.5182L98.4841 52.198C99.2847 52.0378 99.9248 51.2373 99.765 50.4367Z" fill="#F2F2F2"/>
<path d="M21.1477 62.1252C20.9876 61.3246 20.187 60.6842 19.3865 60.8443L17.4651 61.0044C16.6645 61.1645 16.024 61.9651 16.1841 62.7657C16.3442 63.5663 16.9847 64.2067 17.7853 64.2067H17.9454L19.8668 63.8865C20.6674 63.7264 21.3079 62.9258 21.1477 62.1252Z" fill="#F2F2F2"/>
<path d="M104.889 31.543C104.408 30.7424 103.448 30.4222 102.647 30.9025L72.7053 47.0743C71.9047 47.5546 71.5845 48.5153 72.0649 49.3159C72.3851 49.7962 72.8654 50.1165 73.5059 50.1165C73.8261 50.1165 73.9863 50.1165 74.3065 49.9564L104.248 33.7846C105.049 33.3043 105.369 32.3436 104.889 31.543Z" fill="#F2F2F2"/>
<path d="M46.7664 63.246C46.2861 62.4454 45.3254 62.1252 44.5248 62.6055L14.5827 78.7773C13.7821 79.2576 13.4619 80.2183 13.9422 81.0189C14.2625 81.4992 14.7428 81.8195 15.3833 81.8195C15.7035 81.8195 15.8636 81.8195 16.1839 81.6594L46.1256 65.4876C46.9265 65.0073 47.2468 64.0466 46.7664 63.246Z" fill="#F2F2F2"/>
<path d="M89.1972 22.5764C88.5567 21.936 87.596 22.0961 86.9556 22.7365L60.8566 51.7176C60.2161 52.3581 60.3762 53.3188 61.0167 53.9593C61.3369 54.1194 61.6572 54.2795 62.1375 54.2795C62.6179 54.2795 62.9381 54.1194 63.2583 53.7991L89.3573 24.8181C89.9978 24.1776 89.8373 23.2169 89.1972 22.5764Z" fill="#F2F2F2"/>
<path d="M57.3341 57.9622C56.6936 57.3217 55.7329 57.4818 55.0925 58.1223L28.8334 86.9432C28.1929 87.5837 28.353 88.5444 28.9935 89.1849C29.3137 89.5051 29.634 89.6652 30.1143 89.6652C30.5947 89.6652 30.9149 89.5051 31.2351 89.1849L57.3341 60.2038C57.9746 59.5633 57.9746 58.6026 57.3341 57.9622Z" fill="#F2F2F2"/>
<path d="M27.8727 90.9461C27.2323 90.1455 26.2716 90.3056 25.6311 90.9461L22.749 94.1484C22.1085 94.7889 22.2686 95.7496 22.9091 96.3901C23.2293 96.7103 23.5496 96.8704 24.0299 96.8704C24.5103 96.8704 24.8305 96.7103 25.1507 96.3901L28.0328 93.1877C28.6733 92.5473 28.5132 91.5866 27.8727 90.9461Z" fill="#F2F2F2"/>
<path d="M96.4026 14.5706C95.7621 13.9301 94.8014 14.0902 94.1609 14.7307L91.2788 17.7729C90.6384 18.4134 90.7985 19.3741 91.439 20.0145C91.7592 20.3347 92.0794 20.4949 92.5598 20.4949C93.0401 20.4949 93.3604 20.3347 93.6806 20.0145L96.5627 16.8122C97.2032 16.1717 97.0427 15.211 96.4026 14.5706Z" fill="#F2F2F2"/>
<path d="M78.6296 8.00583C77.829 7.6856 76.8683 8.00583 76.5481 8.80641L65.8203 35.0655C65.34 36.0262 65.8203 36.8268 66.6209 37.147C66.781 37.3071 67.1012 37.3071 67.2614 37.3071C67.9018 37.3071 68.5423 36.9869 68.7024 36.3464L79.4302 10.0873C79.7504 9.28676 79.4302 8.32606 78.6296 8.00583Z" fill="#F2F2F2"/>
<path d="M55.733 65.8079C54.9324 65.4877 53.9717 65.8079 53.6514 66.6085L40.5219 98.3115C40.2017 99.1121 40.5219 100.073 41.3225 100.393C41.4826 100.553 41.8028 100.553 41.9629 100.553C42.6034 100.553 43.2439 100.233 43.404 99.5925L56.5335 67.8894C57.0139 67.0888 56.5335 66.2882 55.733 65.8079Z" fill="#F2F2F2"/>
</g>
<defs>
<filter id="filter0_d" x="0" y="0" width="118" height="118" filterUnits="userSpaceOnUse" color-interpolation-filters="sRGB">
<feFlood flood-opacity="0" result="BackgroundImageFix"/>
<feColorMatrix in="SourceAlpha" type="matrix" values="0 0 0 0 0 0 0 0 0 0 0 0 0 0 0 0 0 0 127 0"/>
<feOffset dy="4"/>
<feGaussianBlur stdDeviation="2"/>
<feColorMatrix type="matrix" values="0 0 0 0 0 0 0 0 0 0 0 0 0 0 0 0 0 0 0.25 0"/>
<feBlend mode="normal" in2="BackgroundImageFix" result="effect1_dropShadow"/>
<feBlend mode="normal" in="SourceGraphic" in2="effect1_dropShadow" result="shape"/>
</filter>
</defs>
</svg>
